<svg width="31" height="26" fill="none" xmlns="http://www.w3.org/2000/svg"><path d="M12.459 8.03v1.748c0 1.121-2.788 2.03-6.227 2.03-3.439 0-6.226-.903-6.226-2.03V8.031C.006 6.91 2.794 6 6.232 6c3.44 0 6.227.907 6.227 2.03Zm-6.227 5.704c-2.259 0-4.604-.346-6.194-1.205a.707.707 0 0 0-.038.22v1.748c0 1.12 2.787 2.03 6.226 2.03 3.44 0 6.226-.904 6.226-2.03v-1.748a.707.707 0 0 0-.038-.22c-1.566.859-3.925 1.205-6.182 1.205Zm0 4.73c-2.259 0-4.604-.346-6.194-1.204a.705.705 0 0 0-.038.22v1.747c0 1.12 2.787 2.03 6.226 2.03 3.44 0 6.226-.903 6.226-2.03v-1.748a.694.694 0 0 0-.038-.22c-1.566.86-3.926 1.209-6.182 1.209v-.003Zm0 4.731c-2.259 0-4.604-.346-6.194-1.205a.705.705 0 0 0-.038.22v1.747C.003 25.097 2.793 26 6.233 26c3.439 0 6.226-.904 6.226-2.03v-1.748a.704.704 0 0 0-.039-.22c-1.572.847-3.931 1.193-6.188 1.193Zm14.542-12.468c-3.44 0-6.227.904-6.227 2.031v1.748c0 1.12 2.788 2.03 6.227 2.03 3.439 0 6.226-.904 6.226-2.03v-1.748c.003-1.12-4 .242-6.226-2.03Zm0 7.738c-2.257.002-4.617-.347-6.189-1.203a.706.706 0 0 0-.038.22v1.748c0 1.12 2.787 2.03 6.226 2.03 3.44 0 6.227-.903 6.227-2.03v-1.748a.714.714 0 0 0-.039-.22c-1.584.856-3.928 1.205-6.188 1.205v-.002Zm0 4.73c-2.26 0-4.605-.347-6.194-1.205a.7.7 0 0 0-.039.22v1.747C14.547 25.096 17.338 26 20.774 26 24.21 26 27 25.096 27 23.969v-1.748a.71.71 0 0 0-.038-.22c-1.584.847-3.929 1.194-6.188 1.194Z" fill="#E45E13"/><path d="M31 7.44c0-2.857-1.667-5.297-3.988-6.547 0 0-.06 0-.06-.06A7.396 7.396 0 0 0 23.5 0C19.393 0 16 3.393 16 7.5s3.393 7.5 7.5 7.5 7.38-3.274 7.5-7.321V7.44Zm-5.298-1.31h-1.369v-.118c0-.536-.476-.953-1.012-.774-.298.06-.476.297-.595.595-.12.536.297 1.072.833 1.012.476 0 1.012.119 1.37.417 1.428 1.428.714 3.333-.715 3.81v.118a.724.724 0 0 1-.715.715.724.724 0 0 1-.714-.715v-.119a2.181 2.181 0 0 1-1.488-2.083V8.87h1.369v.12c0 .535.476.951 1.012.773.298-.06.476-.298.595-.595.12-.536-.297-1.072-.833-1.012-.476 0-1.012-.12-1.37-.417-1.428-1.428-.714-3.333.715-3.81V3.81c0-.357.298-.715.715-.715.357 0 .714.298.714.715v.119a2.18 2.18 0 0 1 1.488 2.083v.119Z" fill="#F07D00"/></svg>