<svg width="31" height="26" fill="none" xmlns="http://www.w3.org/2000/svg"><path d="M22.274 26V11.592c0-.482-.103-.927-.309-1.336a2.66 2.66 0 0 0-.891-1.012l-8.982-6.427c0-.77.285-1.433.855-1.986A2.84 2.84 0 0 1 15.001 0h13.09c.8 0 1.486.283 2.056.848.57.566.854 1.246.854 2.04v20.223c0 .795-.285 1.475-.854 2.041a2.815 2.815 0 0 1-2.055.848h-5.818Zm0-5.778h2.909v-2.889h-2.91v2.89Zm0-5.778h2.909v-2.888h-2.91v2.888Zm0-5.777h2.909v-2.89h-2.91v2.89Z" fill="#F07D00"/><path d="M0 13.046v11.51c0 .41.137.752.411 1.028.274.277.613.416 1.018.416h5.714v-8.66h5.714V26h5.714c.405 0 .745-.139 1.019-.416.273-.276.41-.618.41-1.027v-11.51c0-.482-.107-.927-.321-1.336a2.79 2.79 0 0 0-.893-1.01l-7.143-5.16A2.747 2.747 0 0 0 10 5c-.595 0-1.143.18-1.643.541l-7.143 5.16a2.79 2.79 0 0 0-.893 1.01A2.833 2.833 0 0 0 0 13.046Z" fill="#E45E13"/></svg>