<svg width="32" height="26" fill="none" xmlns="http://www.w3.org/2000/svg"><path d="M31 12a1 1 0 0 0-1 1v10a1 1 0 0 1-2 0V9a5 5 0 0 0-5-5h-8a5 5 0 0 0-5 5v12a5 5 0 0 0 5 5h14a3 3 0 0 0 3-3V13a1 1 0 0 0-1-1Zm-15-1.5a1.5 1.5 0 1 1 0 3 1.5 1.5 0 0 1 0-3Zm6 9a1.5 1.5 0 1 1 0-3 1.5 1.5 0 0 1 0 3Zm1.71-7.79-8 8a1 1 0 0 1-1.42 0 1 1 0 0 1 0-1.42l8-8a1.004 1.004 0 1 1 1.42 1.42Z" fill="#F07D00"/><path d="M9.993 1.116c-.439-1.488-2.547-1.488-2.986 0l-.106.36a1.556 1.556 0 0 1-2.237.927l-.329-.18c-1.363-.742-2.854.749-2.111 2.11l.18.331a1.556 1.556 0 0 1-.927 2.237l-.361.106c-1.488.439-1.488 2.547 0 2.986l.36.106a1.554 1.554 0 0 1 .927 2.237l-.18.329c-.742 1.363.749 2.854 2.11 2.111l.331-.18a1.556 1.556 0 0 1 2.237.927l.106.361c.439 1.488 2.547 1.488 2.986 0l.106-.36a1.554 1.554 0 0 1 2.237-.927l.329.18c1.363.742 2.854-.749 2.111-2.11l-.18-.331a1.556 1.556 0 0 1 .927-2.237l.361-.106c1.488-.439 1.488-2.547 0-2.986l-.36-.106a1.555 1.555 0 0 1-.927-2.237l.18-.329c.742-1.363-.749-2.854-2.11-2.111l-.331.18a1.555 1.555 0 0 1-2.237-.927l-.106-.361ZM8.5 11.613a3.113 3.113 0 1 1 0-6.222 3.113 3.113 0 0 1 0 6.22v.002Z" fill="#E45E13"/><circle cx="8.5" cy="8.5" r="3.5" fill="#F9FAFF"/></svg>