<svg width="695" height="559" fill="none" xmlns="http://www.w3.org/2000/svg"><path d="M94.5 8v495" stroke="url(#a)" stroke-opacity=".5" stroke-linecap="round"/><path d="M239 6v495" stroke="url(#b)" stroke-opacity=".5" stroke-linecap="round"/><path d="M381 6v495" stroke="url(#c)" stroke-opacity=".5" stroke-linecap="round"/><path d="M514 6v495" stroke="url(#d)" stroke-opacity=".5" stroke-linecap="round"/><path d="M639 8v495" stroke="url(#e)" stroke-opacity=".5" stroke-linecap="round"/><path d="m363.958 532.272-5.448 10.416V549h-2.184v-6.312l-5.472-10.416h2.424l4.128 8.472 4.128-8.472h2.424Zm14.304 9.648c0 .416-.024.856-.072 1.32h-10.512c.08 1.296.52 2.312 1.32 3.048.816.72 1.8 1.08 2.952 1.08.944 0 1.728-.216 2.352-.648a3.535 3.535 0 0 0 1.344-1.776h2.352a5.712 5.712 0 0 1-2.112 3.096c-1.056.784-2.368 1.176-3.936 1.176-1.248 0-2.368-.28-3.36-.84-.976-.56-1.744-1.352-2.304-2.376-.56-1.04-.84-2.24-.84-3.6 0-1.36.272-2.552.816-3.576.544-1.024 1.304-1.808 2.28-2.352.992-.56 2.128-.84 3.408-.84 1.248 0 2.352.272 3.312.816a5.55 5.55 0 0 1 2.208 2.256c.528.944.792 2.016.792 3.216Zm-2.256-.456c0-.832-.184-1.544-.552-2.136a3.474 3.474 0 0 0-1.512-1.368c-.624-.32-1.32-.48-2.088-.48-1.104 0-2.048.352-2.832 1.056-.768.704-1.208 1.68-1.32 2.928h8.304Zm4.323.912c0-1.344.272-2.52.816-3.528.544-1.024 1.288-1.816 2.232-2.376.96-.56 2.024-.84 3.192-.84 1.152 0 2.152.248 3 .744.848.496 1.48 1.12 1.896 1.872v-2.4h2.208V549h-2.208v-2.448c-.432.768-1.08 1.408-1.944 1.92-.848.496-1.84.744-2.976.744-1.168 0-2.224-.288-3.168-.864-.944-.576-1.688-1.384-2.232-2.424-.544-1.04-.816-2.224-.816-3.552Zm11.136.024c0-.992-.2-1.856-.6-2.592-.4-.736-.944-1.296-1.632-1.68-.672-.4-1.416-.6-2.232-.6-.816 0-1.56.192-2.232.576-.672.384-1.208.944-1.608 1.68-.4.736-.6 1.6-.6 2.592 0 1.008.2 1.888.6 2.64.4.736.936 1.304 1.608 1.704a4.419 4.419 0 0 0 2.232.576c.816 0 1.56-.192 2.232-.576a4.295 4.295 0 0 0 1.632-1.704c.4-.752.6-1.624.6-2.616Zm8.083-4.416a4.212 4.212 0 0 1 1.632-1.752c.72-.416 1.592-.624 2.616-.624v2.256h-.576c-2.448 0-3.672 1.328-3.672 3.984V549h-2.184v-13.152h2.184v2.136Zm11.425 11.232c-1.008 0-1.912-.168-2.712-.504-.8-.352-1.432-.832-1.896-1.44a3.892 3.892 0 0 1-.768-2.136h2.256c.064.656.368 1.192.912 1.608.56.416 1.288.624 2.184.624.832 0 1.488-.184 1.968-.552.48-.368.72-.832.72-1.392 0-.576-.256-1-.768-1.272-.512-.288-1.304-.568-2.376-.84-.976-.256-1.776-.512-2.4-.768a4.557 4.557 0 0 1-1.584-1.176c-.432-.528-.648-1.216-.648-2.064 0-.672.2-1.288.6-1.848.4-.56.968-1 1.704-1.32.736-.336 1.576-.504 2.52-.504 1.456 0 2.632.368 3.528 1.104.896.736 1.376 1.744 1.44 3.024h-2.184c-.048-.688-.328-1.24-.84-1.656-.496-.416-1.168-.624-2.016-.624-.784 0-1.408.168-1.872.504-.464.336-.696.776-.696 1.32 0 .432.136.792.408 1.08.288.272.64.496 1.056.672.432.16 1.024.344 1.776.552.944.256 1.712.512 2.304.768a3.82 3.82 0 0 1 1.512 1.104c.432.496.656 1.144.672 1.944 0 .72-.2 1.368-.6 1.944-.4.576-.968 1.032-1.704 1.368-.72.32-1.552.48-2.496.48ZM681.28 407.264v7.296l3.72 1.344v2.304l-16.632-6.048v-2.52L685 403.616v2.304l-3.72 1.344Zm-1.776.624-8.448 3.024 8.448 3.024v-6.048Zm-7.896-13.316c0-1.6.488-2.896 1.464-3.888.96-.992 2.352-1.488 4.176-1.488H685v2.16h-7.44c-1.312 0-2.312.328-3 .984-.704.656-1.056 1.552-1.056 2.688 0 1.152.36 2.072 1.08 2.76.72.672 1.768 1.008 3.144 1.008H685v2.184h-13.152v-2.184h1.872a4.354 4.354 0 0 1-1.56-1.752 5.547 5.547 0 0 1-.552-2.472Zm0-15.351c0-1.6.488-2.896 1.464-3.888.96-.992 2.352-1.488 4.176-1.488H685v2.16h-7.44c-1.312 0-2.312.328-3 .984-.704.656-1.056 1.552-1.056 2.688 0 1.152.36 2.072 1.08 2.76.72.672 1.768 1.008 3.144 1.008H685v2.184h-13.152v-2.184h1.872a4.354 4.354 0 0 1-1.56-1.752 5.547 5.547 0 0 1-.552-2.472Zm.24-20.608H685v2.184h-1.944c.672.416 1.2 1 1.584 1.752.368.736.552 1.552.552 2.448 0 1.024-.208 1.944-.624 2.76-.432.816-1.072 1.464-1.92 1.944-.848.464-1.88.696-3.096.696h-7.704v-2.16h7.416c1.296 0 2.296-.328 3-.984.688-.656 1.032-1.552 1.032-2.688 0-1.168-.36-2.088-1.08-2.76-.72-.672-1.768-1.008-3.144-1.008h-7.224v-2.184Zm6.528-2.872c-1.344 0-2.52-.272-3.528-.816-1.024-.544-1.816-1.288-2.376-2.232-.56-.96-.84-2.024-.84-3.192 0-1.152.248-2.152.744-3 .496-.848 1.12-1.48 1.872-1.896h-2.4v-2.208H685v2.208h-2.448c.768.432 1.408 1.08 1.92 1.944.496.848.744 1.84.744 2.976 0 1.168-.288 2.224-.864 3.168-.576.944-1.384 1.688-2.424 2.232-1.04.544-2.224.816-3.552.816Zm.024-11.136c-.992 0-1.856.2-2.592.6-.736.4-1.296.944-1.68 1.632-.4.672-.6 1.416-.6 2.232 0 .816.192 1.56.576 2.232.384.672.944 1.208 1.68 1.608.736.4 1.6.6 2.592.6 1.008 0 1.888-.2 2.64-.6.736-.4 1.304-.936 1.704-1.608a4.419 4.419 0 0 0 .576-2.232c0-.816-.192-1.56-.576-2.232a4.295 4.295 0 0 0-1.704-1.632c-.752-.4-1.624-.6-2.616-.6Zm-11.16-8.082H685v2.184h-17.76v-2.184ZM685 317.594l-6.84 3.984v2.64H685v2.184h-16.728v-5.4c0-1.264.216-2.328.648-3.192.432-.88 1.016-1.536 1.752-1.968.736-.432 1.576-.648 2.52-.648 1.152 0 2.168.336 3.048 1.008.88.656 1.464 1.648 1.752 2.976l7.008-4.2v2.616Zm-8.592 6.624v-3.216c0-1.184-.288-2.072-.864-2.664-.592-.592-1.376-.888-2.352-.888-.992 0-1.76.296-2.304.888-.544.576-.816 1.464-.816 2.664v3.216h6.336Zm1.512-24.418c.416 0 .856.024 1.32.072v10.512c1.296-.08 2.312-.52 3.048-1.32.72-.816 1.08-1.8 1.08-2.952 0-.944-.216-1.728-.648-2.352a3.535 3.535 0 0 0-1.776-1.344v-2.352a5.712 5.712 0 0 1 3.096 2.112c.784 1.056 1.176 2.368 1.176 3.936 0 1.248-.28 2.368-.84 3.36-.56.976-1.352 1.744-2.376 2.304-1.04.56-2.24.84-3.6.84-1.36 0-2.552-.272-3.576-.816-1.024-.544-1.808-1.304-2.352-2.28-.56-.992-.84-2.128-.84-3.408 0-1.248.272-2.352.816-3.312a5.55 5.55 0 0 1 2.256-2.208c.944-.528 2.016-.792 3.216-.792Zm-.456 2.256c-.832 0-1.544.184-2.136.552a3.474 3.474 0 0 0-1.368 1.512c-.32.624-.48 1.32-.48 2.088 0 1.104.352 2.048 1.056 2.832.704.768 1.68 1.208 2.928 1.32v-8.304Zm-3.816-7.802h7.752c.64 0 1.096-.136 1.368-.408.256-.272.384-.744.384-1.416v-1.608H685v1.968c0 1.216-.28 2.128-.84 2.736-.56.608-1.48.912-2.76.912h-7.752v1.704h-1.8v-1.704h-3.312v-2.184h3.312v-3.432h1.8v3.432Zm-1.8-17.743H685v2.184h-1.944c.672.416 1.2 1 1.584 1.752.368.736.552 1.552.552 2.448 0 1.024-.208 1.944-.624 2.76-.432.816-1.072 1.464-1.92 1.944-.848.464-1.88.696-3.096.696h-7.704v-2.16h7.416c1.296 0 2.296-.328 3-.984.688-.656 1.032-1.552 1.032-2.688 0-1.168-.36-2.088-1.08-2.76-.72-.672-1.768-1.008-3.144-1.008h-7.224v-2.184Zm2.136-5.871a4.212 4.212 0 0 1-1.752-1.632c-.416-.72-.624-1.592-.624-2.616h2.256v.576c0 2.448 1.328 3.672 3.984 3.672H685v2.184h-13.152v-2.184h2.136Zm-2.376-13.177c0-1.6.488-2.896 1.464-3.888.96-.992 2.352-1.488 4.176-1.488H685v2.16h-7.44c-1.312 0-2.312.328-3 .984-.704.656-1.056 1.552-1.056 2.688 0 1.152.36 2.072 1.08 2.76.72.672 1.768 1.008 3.144 1.008H685v2.184h-13.152v-2.184h1.872a4.354 4.354 0 0 1-1.56-1.752 5.547 5.547 0 0 1-.552-2.472Z" fill="#fff" fill-opacity=".7"/><g filter="url(#f)"><path d="M11.616 442.371c5.96-3.084 22.277-17.594 39.871-50.967 10.537-19.706 34.761-52.386 65.581-47.802 9.304 1.384 29.622 6.4 62.719 28.8 16.257 8.851 49.618 9.806 69.443-28.419 19.825-38.226 48.952-33.857 68.799-43.688 5.758-3.075 19.398-8.959 34.364-22.693 15.145-13.897 33.425-42.44 66.69-21.504 27.992 17.617 52.278 22.606 78.417 21.504 26.139-1.101 52.743-30.43 65.974-48.832 13.231-18.403 23.73-20.255 44.519-27.37 17.775-6.082 34.758-42.253 50.921-48.883" stroke="#F07D00" stroke-width="6"/></g><path d="M51 392c-10.8 25.6-30.167 43.333-38.5 49V0h646c.333 51 0 153.4-4 155-4 1.6-30.333 31.333-43 46-16.8.8-35.333 13.667-42.5 20-33.5 38.5-43 51-76.5 56s-74-23-86.5-28-30.5 2.5-47.5 23c-13.6 16.4-44.333 29.167-58 33.5-9.833-1.667-34 3.6-52 38s-47.167 36-59.5 32.5c-40.8-24.8-66.667-32-74.5-32.5-16.5-6-50 16.5-63.5 48.5Z" fill="url(#g)" fill-opacity=".6"/><circle cx="582" cy="212" r="9.5" fill="#fff" stroke="#E45E13" stroke-width="7"/><path d="M290 177.248v2.712h-6.984v4.296h5.352v2.664h-5.352V194h-3.36v-16.752H290Zm4.087 1.872c-.592 0-1.088-.184-1.488-.552a1.925 1.925 0 0 1-.576-1.416c0-.56.192-1.024.576-1.392.4-.384.896-.576 1.488-.576s1.08.192 1.464.576c.4.368.6.832.6 1.392 0 .56-.2 1.032-.6 1.416-.384.368-.872.552-1.464.552Zm1.656 1.584V194h-3.36v-13.296h3.36Zm10.687-.192c1.584 0 2.864.504 3.84 1.512.976.992 1.464 2.384 1.464 4.176v7.8h-3.36v-7.344c0-1.056-.264-1.864-.792-2.424-.528-.576-1.248-.864-2.16-.864-.928 0-1.664.288-2.208.864-.528.56-.792 1.368-.792 2.424V194h-3.36v-13.296h3.36v1.656a4.555 4.555 0 0 1 1.704-1.344 5.28 5.28 0 0 1 2.304-.504Zm7.635 6.792c0-1.344.264-2.536.792-3.576.544-1.04 1.272-1.84 2.184-2.4.928-.56 1.96-.84 3.096-.84.992 0 1.856.2 2.592.6.752.4 1.352.904 1.8 1.512v-1.896h3.384V194h-3.384v-1.944c-.432.624-1.032 1.144-1.8 1.56-.752.4-1.624.6-2.616.6a5.71 5.71 0 0 1-3.072-.864c-.912-.576-1.64-1.384-2.184-2.424-.528-1.056-.792-2.264-.792-3.624Zm10.464.048c0-.816-.16-1.512-.48-2.088-.32-.592-.752-1.04-1.296-1.344a3.397 3.397 0 0 0-1.752-.48c-.624 0-1.2.152-1.728.456-.528.304-.96.752-1.296 1.344-.32.576-.48 1.264-.48 2.064s.16 1.504.48 2.112c.336.592.768 1.048 1.296 1.368.544.32 1.12.48 1.728.48.624 0 1.208-.152 1.752-.456.544-.32.976-.768 1.296-1.344.32-.592.48-1.296.48-2.112Zm14.034-6.84c1.584 0 2.864.504 3.84 1.512.976.992 1.464 2.384 1.464 4.176v7.8h-3.36v-7.344c0-1.056-.264-1.864-.792-2.424-.528-.576-1.248-.864-2.16-.864-.928 0-1.664.288-2.208.864-.528.56-.792 1.368-.792 2.424V194h-3.36v-13.296h3.36v1.656a4.555 4.555 0 0 1 1.704-1.344 5.28 5.28 0 0 1 2.304-.504Zm7.635 6.84c0-1.376.28-2.576.84-3.6.56-1.04 1.336-1.84 2.328-2.4.992-.576 2.128-.864 3.408-.864 1.648 0 3.008.416 4.08 1.248 1.088.816 1.816 1.968 2.184 3.456h-3.624c-.192-.576-.52-1.024-.984-1.344-.448-.336-1.008-.504-1.68-.504-.96 0-1.72.352-2.28 1.056-.56.688-.84 1.672-.84 2.952 0 1.264.28 2.248.84 2.952.56.688 1.32 1.032 2.28 1.032 1.36 0 2.248-.608 2.664-1.824h3.624c-.368 1.44-1.096 2.584-2.184 3.432-1.088.848-2.448 1.272-4.08 1.272-1.28 0-2.416-.28-3.408-.84a6.108 6.108 0 0 1-2.328-2.4c-.56-1.04-.84-2.248-.84-3.624Zm17.006-8.232c-.592 0-1.088-.184-1.488-.552a1.925 1.925 0 0 1-.576-1.416c0-.56.192-1.024.576-1.392.4-.384.896-.576 1.488-.576s1.08.192 1.464.576c.4.368.6.832.6 1.392 0 .56-.2 1.032-.6 1.416-.384.368-.872.552-1.464.552Zm1.656 1.584V194h-3.36v-13.296h3.36Zm2.455 6.6c0-1.344.264-2.536.792-3.576.544-1.04 1.272-1.84 2.184-2.4.928-.56 1.96-.84 3.096-.84.992 0 1.856.2 2.592.6.752.4 1.352.904 1.8 1.512v-1.896h3.384V194h-3.384v-1.944c-.432.624-1.032 1.144-1.8 1.56-.752.4-1.624.6-2.616.6a5.71 5.71 0 0 1-3.072-.864c-.912-.576-1.64-1.384-2.184-2.424-.528-1.056-.792-2.264-.792-3.624Zm10.464.048c0-.816-.16-1.512-.48-2.088-.32-.592-.752-1.04-1.296-1.344a3.397 3.397 0 0 0-1.752-.48c-.624 0-1.2.152-1.728.456-.528.304-.96.752-1.296 1.344-.32.576-.48 1.264-.48 2.064s.16 1.504.48 2.112c.336.592.768 1.048 1.296 1.368.544.32 1.12.48 1.728.48.624 0 1.208-.152 1.752-.456.544-.32.976-.768 1.296-1.344.32-.592.48-1.296.48-2.112Zm10.026-11.112V194h-3.36v-17.76h3.36Zm12.399 1.008V194h-3.36v-16.752h3.36Zm10.687 3.264c1.584 0 2.864.504 3.84 1.512.976.992 1.464 2.384 1.464 4.176v7.8h-3.36v-7.344c0-1.056-.264-1.864-.792-2.424-.528-.576-1.248-.864-2.16-.864-.928 0-1.664.288-2.208.864-.528.56-.792 1.368-.792 2.424V194h-3.36v-13.296h3.36v1.656a4.555 4.555 0 0 1 1.704-1.344 5.28 5.28 0 0 1 2.304-.504Zm7.635 6.792c0-1.344.264-2.536.792-3.576.544-1.04 1.28-1.84 2.208-2.4.928-.56 1.96-.84 3.096-.84a5.55 5.55 0 0 1 2.472.576c.784.368 1.408.864 1.872 1.488v-6.312h3.408V194h-3.408v-1.968c-.416.656-1 1.184-1.752 1.584-.752.4-1.624.6-2.616.6a5.71 5.71 0 0 1-3.072-.864c-.928-.576-1.664-1.384-2.208-2.424-.528-1.056-.792-2.264-.792-3.624Zm10.464.048c0-.816-.16-1.512-.48-2.088-.32-.592-.752-1.04-1.296-1.344a3.397 3.397 0 0 0-1.752-.48c-.624 0-1.2.152-1.728.456-.528.304-.96.752-1.296 1.344-.32.576-.48 1.264-.48 2.064s.16 1.504.48 2.112c.336.592.768 1.048 1.296 1.368.544.32 1.12.48 1.728.48.624 0 1.208-.152 1.752-.456.544-.32.976-.768 1.296-1.344.32-.592.48-1.296.48-2.112Zm19.026-.288c0 .48-.032.912-.096 1.296h-9.72c.08.96.416 1.712 1.008 2.256.592.544 1.32.816 2.184.816 1.248 0 2.136-.536 2.664-1.608h3.624c-.384 1.28-1.12 2.336-2.208 3.168-1.088.816-2.424 1.224-4.008 1.224-1.28 0-2.432-.28-3.456-.84a6.182 6.182 0 0 1-2.376-2.424c-.56-1.04-.84-2.24-.84-3.6 0-1.376.28-2.584.84-3.624a5.861 5.861 0 0 1 2.352-2.4c1.008-.56 2.168-.84 3.48-.84 1.264 0 2.392.272 3.384.816a5.63 5.63 0 0 1 2.328 2.328c.56.992.84 2.136.84 3.432Zm-3.48-.96c-.016-.864-.328-1.552-.936-2.064-.608-.528-1.352-.792-2.232-.792-.832 0-1.536.256-2.112.768-.56.496-.904 1.192-1.032 2.088h6.312Zm9.293-3.48c.432-.608 1.024-1.112 1.776-1.512.768-.416 1.64-.624 2.616-.624 1.136 0 2.16.28 3.072.84.928.56 1.656 1.36 2.184 2.4.544 1.024.816 2.216.816 3.576 0 1.36-.272 2.568-.816 3.624-.528 1.04-1.256 1.848-2.184 2.424-.912.576-1.936.864-3.072.864-.976 0-1.84-.2-2.592-.6a5.571 5.571 0 0 1-1.8-1.512v8.232h-3.36v-19.632h3.36v1.92Zm7.032 4.68c0-.8-.168-1.488-.504-2.064-.32-.592-.752-1.04-1.296-1.344a3.403 3.403 0 0 0-1.728-.456c-.608 0-1.184.16-1.728.48-.528.304-.96.752-1.296 1.344-.32.592-.48 1.288-.48 2.088s.16 1.496.48 2.088c.336.592.768 1.048 1.296 1.368a3.49 3.49 0 0 0 1.728.456c.624 0 1.2-.16 1.728-.48a3.45 3.45 0 0 0 1.296-1.368c.336-.592.504-1.296.504-2.112Zm18.233-.24c0 .48-.032.912-.096 1.296h-9.72c.08.96.416 1.712 1.008 2.256.592.544 1.32.816 2.184.816 1.248 0 2.136-.536 2.664-1.608h3.624c-.384 1.28-1.12 2.336-2.208 3.168-1.088.816-2.424 1.224-4.008 1.224-1.28 0-2.432-.28-3.456-.84a6.182 6.182 0 0 1-2.376-2.424c-.56-1.04-.84-2.24-.84-3.6 0-1.376.28-2.584.84-3.624a5.861 5.861 0 0 1 2.352-2.4c1.008-.56 2.168-.84 3.48-.84 1.264 0 2.392.272 3.384.816a5.63 5.63 0 0 1 2.328 2.328c.56.992.84 2.136.84 3.432Zm-3.48-.96c-.016-.864-.328-1.552-.936-2.064-.608-.528-1.352-.792-2.232-.792-.832 0-1.536.256-2.112.768-.56.496-.904 1.192-1.032 2.088h6.312Zm13.301-5.592c1.584 0 2.864.504 3.84 1.512.976.992 1.464 2.384 1.464 4.176v7.8h-3.36v-7.344c0-1.056-.264-1.864-.792-2.424-.528-.576-1.248-.864-2.16-.864-.928 0-1.664.288-2.208.864-.528.56-.792 1.368-.792 2.424V194h-3.36v-13.296h3.36v1.656a4.555 4.555 0 0 1 1.704-1.344 5.28 5.28 0 0 1 2.304-.504Zm7.635 6.792c0-1.344.264-2.536.792-3.576.544-1.04 1.28-1.84 2.208-2.4.928-.56 1.96-.84 3.096-.84a5.55 5.55 0 0 1 2.472.576c.784.368 1.408.864 1.872 1.488v-6.312h3.408V194h-3.408v-1.968c-.416.656-1 1.184-1.752 1.584-.752.4-1.624.6-2.616.6a5.71 5.71 0 0 1-3.072-.864c-.928-.576-1.664-1.384-2.208-2.424-.528-1.056-.792-2.264-.792-3.624Zm10.464.048c0-.816-.16-1.512-.48-2.088-.32-.592-.752-1.04-1.296-1.344a3.397 3.397 0 0 0-1.752-.48c-.624 0-1.2.152-1.728.456-.528.304-.96.752-1.296 1.344-.32.576-.48 1.264-.48 2.064s.16 1.504.48 2.112c.336.592.768 1.048 1.296 1.368.544.32 1.12.48 1.728.48.624 0 1.208-.152 1.752-.456.544-.32.976-.768 1.296-1.344.32-.592.48-1.296.48-2.112Zm19.025-.288c0 .48-.032.912-.096 1.296h-9.72c.08.96.416 1.712 1.008 2.256.592.544 1.32.816 2.184.816 1.248 0 2.136-.536 2.664-1.608h3.624c-.384 1.28-1.12 2.336-2.208 3.168-1.088.816-2.424 1.224-4.008 1.224-1.28 0-2.432-.28-3.456-.84a6.182 6.182 0 0 1-2.376-2.424c-.56-1.04-.84-2.24-.84-3.6 0-1.376.28-2.584.84-3.624a5.861 5.861 0 0 1 2.352-2.4c1.008-.56 2.168-.84 3.48-.84 1.264 0 2.392.272 3.384.816a5.63 5.63 0 0 1 2.328 2.328c.56.992.84 2.136.84 3.432Zm-3.48-.96c-.016-.864-.328-1.552-.936-2.064-.608-.528-1.352-.792-2.232-.792-.832 0-1.536.256-2.112.768-.56.496-.904 1.192-1.032 2.088h6.312Zm13.301-5.592c1.584 0 2.864.504 3.84 1.512.976.992 1.464 2.384 1.464 4.176v7.8h-3.36v-7.344c0-1.056-.264-1.864-.792-2.424-.528-.576-1.248-.864-2.16-.864-.928 0-1.664.288-2.208.864-.528.56-.792 1.368-.792 2.424V194h-3.36v-13.296h3.36v1.656a4.555 4.555 0 0 1 1.704-1.344 5.28 5.28 0 0 1 2.304-.504Zm7.635 6.84c0-1.376.28-2.576.84-3.6.56-1.04 1.336-1.84 2.328-2.4.992-.576 2.128-.864 3.408-.864 1.648 0 3.008.416 4.08 1.248 1.088.816 1.816 1.968 2.184 3.456h-3.624c-.192-.576-.52-1.024-.984-1.344-.448-.336-1.008-.504-1.68-.504-.96 0-1.72.352-2.28 1.056-.56.688-.84 1.672-.84 2.952 0 1.264.28 2.248.84 2.952.56.688 1.32 1.032 2.28 1.032 1.36 0 2.248-.608 2.664-1.824h3.624c-.368 1.44-1.096 2.584-2.184 3.432-1.088.848-2.448 1.272-4.08 1.272-1.28 0-2.416-.28-3.408-.84a6.108 6.108 0 0 1-2.328-2.4c-.56-1.04-.84-2.248-.84-3.624Zm27.662-.288c0 .48-.032.912-.096 1.296h-9.72c.08.96.416 1.712 1.008 2.256.592.544 1.32.816 2.184.816 1.248 0 2.136-.536 2.664-1.608h3.624c-.384 1.28-1.12 2.336-2.208 3.168-1.088.816-2.424 1.224-4.008 1.224-1.28 0-2.432-.28-3.456-.84a6.182 6.182 0 0 1-2.376-2.424c-.56-1.04-.84-2.24-.84-3.6 0-1.376.28-2.584.84-3.624a5.861 5.861 0 0 1 2.352-2.4c1.008-.56 2.168-.84 3.48-.84 1.264 0 2.392.272 3.384.816a5.63 5.63 0 0 1 2.328 2.328c.56.992.84 2.136.84 3.432Zm-3.48-.96c-.016-.864-.328-1.552-.936-2.064-.608-.528-1.352-.792-2.232-.792-.832 0-1.536.256-2.112.768-.56.496-.904 1.192-1.032 2.088h6.312Z" fill="#fff"/><defs><linearGradient id="a" x1="95" y1="8" x2="95" y2="503" gradientUnits="userSpaceOnUse"><stop stop-color="#0314AC"/><stop offset="1" stop-color="#fff" stop-opacity=".44"/></linearGradient><linearGradient id="b" x1="239.5" y1="6" x2="239.5" y2="501" gradientUnits="userSpaceOnUse"><stop stop-color="#0314AC"/><stop offset="1" stop-color="#fff" stop-opacity=".44"/></linearGradient><linearGradient id="c" x1="381.5" y1="6" x2="381.5" y2="501" gradientUnits="userSpaceOnUse"><stop stop-color="#0314AC"/><stop offset="1" stop-color="#fff" stop-opacity=".44"/></linearGradient><linearGradient id="d" x1="514.5" y1="6" x2="514.5" y2="501" gradientUnits="userSpaceOnUse"><stop stop-color="#0314AC"/><stop offset="1" stop-color="#fff" stop-opacity=".44"/></linearGradient><linearGradient id="e" x1="639.5" y1="8" x2="639.5" y2="503" gradientUnits="userSpaceOnUse"><stop stop-color="#0314AC"/><stop offset="1" stop-color="#fff" stop-opacity=".44"/></linearGradient><linearGradient id="g" x1="336" y1="502.5" x2="221" y2="116.5" gradientUnits="userSpaceOnUse"><stop stop-color="#F07D00"/><stop offset="1" stop-color="#F07D00" stop-opacity="0"/></linearGradient><filter id="f" x="3.236" y="149.742" width="663.816" height="310.294" filterUnits="userSpaceOnUse" color-interpolation-filters="sRGB"><feFlood flood-opacity="0" result="BackgroundImageFix"/><feColorMatrix in="SourceAlpha" values="0 0 0 0 0 0 0 0 0 0 0 0 0 0 0 0 0 0 127 0" result="hardAlpha"/><feOffset dy="8"/><feGaussianBlur stdDeviation="3.5"/><feComposite in2="hardAlpha" operator="out"/><feColorMatrix values="0 0 0 0 0.929412 0 0 0 0 0.615686 0 0 0 0 0.0705882 0 0 0 0.2 0"/><feBlend in2="BackgroundImageFix" result="effect1_dropShadow_605_805"/><feBlend in="SourceGraphic" in2="effect1_dropShadow_605_805" result="shape"/></filter></defs></svg>