<svg width="45" height="32" fill="none" xmlns="http://www.w3.org/2000/svg"><path d="M8.37 15.582a5.275 5.275 0 0 0 5.27-5.27 5.275 5.275 0 0 0-5.27-5.269 5.275 5.275 0 0 0-5.268 5.27 5.276 5.276 0 0 0 5.268 5.27ZM13.207 16.172a7.568 7.568 0 0 1-4.836 1.741 7.565 7.565 0 0 1-4.837-1.741A5.84 5.84 0 0 0 0 21.53v9.726h16.742v-9.726a5.84 5.84 0 0 0-3.534-5.36Z" fill="#F07D00"/><path d="M36.634 15.582a5.275 5.275 0 0 0 5.27-5.27 5.276 5.276 0 0 0-5.27-5.269 5.275 5.275 0 0 0-5.269 5.27 5.275 5.275 0 0 0 5.27 5.27ZM41.465 16.172a7.567 7.567 0 0 1-4.836 1.741 7.566 7.566 0 0 1-4.837-1.741 5.84 5.84 0 0 0-3.534 5.359v9.726H45v-9.726a5.84 5.84 0 0 0-3.535-5.359ZM22.501 12.73a5.92 5.92 0 0 0 5.914-5.913A5.92 5.92 0 0 0 22.5.904a5.92 5.92 0 0 0-5.913 5.913A5.92 5.92 0 0 0 22.5 12.73Z" fill="#E45E13"/><path d="M30.157 14.382a5.848 5.848 0 0 0-2.19-1.405 8.204 8.204 0 0 1-5.464 2.086 8.206 8.206 0 0 1-5.464-2.086 5.835 5.835 0 0 0-2.191 1.405 8.17 8.17 0 0 1 4.228 7.15v9.726h6.853v-9.726a8.17 8.17 0 0 1 4.228-7.15Z" fill="#E45E13"/></svg>