<svg width="39" height="36" fill="none" xmlns="http://www.w3.org/2000/svg"><path d="M6.517 21.834 22.61 9.316l1.8 1.984c.735.83 2.131.47 2.388-.577l2.242-9.018C29.26.767 28.488-.1 27.495.009l-9.369 1.155c-1.102.144-1.616 1.442-.845 2.272l1.8 1.984L4.57 19.742c-.515.505-.551 1.298-.11 1.875.514.614 1.432.722 2.057.217Z" fill="#F07D00"/><path d="M37.325 33.157h-3.22v-17.89a1.4 1.4 0 0 0-1.405-1.421h-4.707a1.4 1.4 0 0 0-1.403 1.42v17.891H23.12V20.952a1.4 1.4 0 0 0-1.403-1.422H17.01a1.4 1.4 0 0 0-1.404 1.422v12.163h-3.468v-6.437a1.4 1.4 0 0 0-1.404-1.42l-4.707-.001a1.4 1.4 0 0 0-1.404 1.421v6.479h-3.22A1.4 1.4 0 0 0 0 34.578 1.4 1.4 0 0 0 1.404 36h35.962a1.4 1.4 0 0 0 1.403-1.42c0-.795-.66-1.422-1.445-1.422Z" fill="#E45E13"/></svg>