<svg width="34" height="36" fill="none" xmlns="http://www.w3.org/2000/svg"><path d="M23.905 6.25h5.578c.641 0 1.224.267 1.647.696a2.38 2.38 0 0 1 .686 1.673v.858a2.38 2.38 0 0 1-.686 1.673 2.307 2.307 0 0 1-1.647.696H5.222a2.308 2.308 0 0 1-1.648-.696 2.38 2.38 0 0 1-.685-1.673v-.858c0-.65.262-1.243.685-1.673a2.307 2.307 0 0 1 1.648-.696h18.683ZM26.893 5.596H2.632A2.308 2.308 0 0 1 .984 4.9 2.38 2.38 0 0 1 .3 3.227v-.858c0-.65.262-1.243.685-1.673A2.308 2.308 0 0 1 2.632 0h24.261c.641 0 1.224.267 1.647.696a2.38 2.38 0 0 1 .686 1.673v.858A2.38 2.38 0 0 1 28.54 4.9a2.308 2.308 0 0 1-1.647.696ZM12.34 24.348H2.628a2.309 2.309 0 0 1-1.644-.696A2.38 2.38 0 0 1 .3 21.979v-.858c0-.65.262-1.243.685-1.673a2.308 2.308 0 0 1 1.648-.696h11.721a11.393 11.393 0 0 0-2.013 5.596ZM13.588 30.6H2.333a2.308 2.308 0 0 1-1.647-.696A2.38 2.38 0 0 1 0 28.23v-.858c0-.65.262-1.243.686-1.673a2.307 2.307 0 0 1 1.647-.696h9.973a11.439 11.439 0 0 0 1.283 5.596Z" fill="#E45E13"/><path d="M14.427 30.777a10.769 10.769 0 0 1-1.48-5.468 10.75 10.75 0 0 1 3.083-7.56 10.413 10.413 0 0 1 14.887 0 10.742 10.742 0 0 1 3.084 7.56c0 2.952-1.178 5.625-3.083 7.56a10.413 10.413 0 0 1-14.887 0 10.712 10.712 0 0 1-1.604-2.092Zm10.114-13.045c0-.602-.478-1.09-1.067-1.09s-1.067.488-1.067 1.09v1.028c-.775.125-1.54.41-2.14.895a3.542 3.542 0 0 0-1.16 1.748c-.102.34-.153.68-.153 1.019 0 2.646 2.066 3.234 4.161 3.83 1.363.388 2.745.781 2.745 1.946 0 2.1-4.677 2.284-4.776-.267a1.07 1.07 0 0 0-1.105-1.037 1.074 1.074 0 0 0-1.02 1.122c.014.381.074.742.178 1.081a3.972 3.972 0 0 0 .46.991l.003-.003c.208.321.458.601.748.839.561.46 1.284.77 2.06.92v1.072c0 .585.477 1.059 1.066 1.059.589 0 1.067-.474 1.067-1.059v-1.05c1.499-.261 2.846-1.126 3.3-2.65.102-.339.153-.679.153-1.018 0-2.804-2.167-3.42-4.304-4.029-1.31-.372-2.602-.74-2.602-1.747 0-2.037 4.112-2.137 4.689-.257.05.166.08.34.087.523a1.07 1.07 0 0 0 1.104 1.037 1.074 1.074 0 0 0 1.021-1.122 4.244 4.244 0 0 0-.178-1.081 3.763 3.763 0 0 0-1.211-1.827c-.59-.482-1.31-.766-2.056-.905l-.003-1.058Z" fill="#F07D00"/><path d="M26.893 12.502c.641 0 1.224.266 1.647.696a2.38 2.38 0 0 1 .686 1.673v.711a10.989 10.989 0 0 0-5.754-1.619c-3.085 0-5.878 1.27-7.9 3.323-.254.259-.496.53-.726.812H2.632a2.308 2.308 0 0 1-1.648-.696A2.38 2.38 0 0 1 .3 15.729v-.858c0-.65.262-1.243.685-1.673a2.307 2.307 0 0 1 1.648-.696h24.261Z" fill="#E45E13"/></svg>