<svg width="37" height="37" fill="none" xmlns="http://www.w3.org/2000/svg"><path d="M7.705 23.811 23.91 10.695l1.813 2.08c.74.868 2.146.49 2.405-.606l2.256-9.45c.222-.982-.555-1.89-1.553-1.776l-9.434 1.21c-1.11.151-1.628 1.512-.851 2.381l1.813 2.08L5.744 21.618c-.517.53-.554 1.36-.11 1.966.517.642 1.442.756 2.071.226ZM34.758 34.117h-2.919V17.905a1.27 1.27 0 0 0-1.272-1.288h-4.265a1.27 1.27 0 0 0-1.273 1.288v16.212h-3.142v-11.06a1.27 1.27 0 0 0-1.273-1.288H16.35a1.27 1.27 0 0 0-1.272 1.288V34.08h-3.143v-5.834a1.27 1.27 0 0 0-1.272-1.287H6.396a1.27 1.27 0 0 0-1.272 1.287v5.871H2.206a1.27 1.27 0 0 0-1.272 1.289c0 .72.56 1.287 1.272 1.287h32.589a1.27 1.27 0 0 0 1.272-1.287c0-.72-.599-1.288-1.31-1.288Z" fill="#fff"/></svg>