<svg width="37" height="41" fill="none" xmlns="http://www.w3.org/2000/svg"><path d="M28.702 23.532h.212v-4.994h1.735c1.778 0 2.71-2.159 1.44-3.429L18.205 1.27c-.805-.804-2.074-.804-2.836 0L1.53 15.11c-1.27 1.27-.381 3.429 1.439 3.429h1.735v13.67c0 .847.72 1.567 1.566 1.567h12.486v-.254c-.042-5.502 4.444-9.989 9.946-9.989Z" fill="#fff"/><path d="M28.703 26.156a7.37 7.37 0 0 0-7.365 7.365 7.37 7.37 0 0 0 7.364 7.364 7.37 7.37 0 0 0 7.365-7.364 7.37 7.37 0 0 0-7.364-7.365Zm2.285 10.54c-.381.422-.931.634-1.608.76v.847c0 .085-.085.17-.17.17h-.889a.182.182 0 0 1-.169-.17v-.846c-.846-.127-1.608-.466-2.243-1.058-.085-.085-.085-.17 0-.254l.72-.89c.084-.084.169-.084.253 0 .254.255.55.424.89.551.38.17.719.212 1.057.212.297 0 .508-.085.72-.212.17-.127.254-.296.254-.55 0-.085 0-.17-.042-.212 0-.085-.043-.127-.085-.211-.042-.043-.085-.127-.17-.17a.885.885 0 0 1-.253-.169 2.921 2.921 0 0 0-.339-.127c-.127-.042-.254-.084-.423-.127a1.967 1.967 0 0 1-.381-.127l-.38-.127a1.507 1.507 0 0 1-.382-.169c-.084-.042-.211-.085-.338-.169-.127-.042-.212-.127-.297-.212-.085-.084-.169-.127-.254-.211a1.125 1.125 0 0 1-.211-.254c-.043-.085-.127-.212-.17-.297-.042-.127-.084-.211-.084-.38 0-.127-.043-.255-.043-.424 0-.593.212-1.1.593-1.524.38-.423.931-.634 1.608-.72v-.93c0-.085.085-.17.17-.17h.889c.084 0 .169.085.169.17v1.016c.38.084.72.211 1.058.38.296.127.55.297.762.466.084.042.084.17.042.254l-.72.889c-.042.085-.169.085-.254.042-.55-.38-1.143-.55-1.65-.55-.297 0-.508.042-.678.169a.604.604 0 0 0-.254.508c0 .211.085.38.297.508.212.127.508.254.931.423.212.042.38.127.508.17.127.041.296.084.465.168.17.043.297.127.424.17.127.042.212.127.338.211.127.085.212.17.297.254.085.085.17.17.254.297.085.127.127.211.169.338.042.127.085.254.085.381.042.17.042.296.042.466a1.551 1.551 0 0 1-.508 1.44Z" fill="#fff"/></svg>