<svg width="22" height="20" fill="none" xmlns="http://www.w3.org/2000/svg"><path d="M21.333 2.8c-.359.213-1.437.638-2.442.745.644-.374 1.599-1.6 1.834-2.574-.62.426-2.043 1.047-2.745 1.047v.003c-.802-.903-1.93-1.465-3.182-1.465-2.43 0-4.4 2.121-4.4 4.74 0 .363.04.715.112 1.055h-.001c-3.297-.09-7.15-1.87-9.323-4.916-1.333 2.487-.18 5.253 1.335 6.261-.517.043-1.473-.063-1.922-.534-.031 1.65.707 3.838 3.395 4.63-.519.301-1.433.216-1.832.149.14 1.396 1.953 3.219 3.933 3.219-.706.877-3.114 2.475-6.095 1.966 2.025 1.328 4.386 2.096 6.884 2.096 7.1 0 12.615-6.196 12.318-13.84 0-.01-.003-.019-.003-.027l.003-.06c0-.023-.003-.047-.003-.071a7.927 7.927 0 0 0 2.134-2.425Z" fill="#fff"/></svg>