<svg width="20" height="14" fill="none" xmlns="http://www.w3.org/2000/svg"><path d="M10.029 0h.11c1.025.004 6.213.041 7.612.417a2.503 2.503 0 0 1 1.762 1.77c.126.472.215 1.1.274 1.746l.013.13.027.323.01.13c.081 1.138.091 2.204.092 2.437v.094c0 .241-.012 1.38-.102 2.566l-.01.13-.011.13c-.062.713-.154 1.42-.293 1.94a2.5 2.5 0 0 1-1.762 1.77c-1.445.388-6.937.416-7.699.417h-.176c-.385 0-1.977-.008-3.646-.065l-.212-.007-.109-.005-.213-.009-.213-.009c-1.382-.06-2.699-.16-3.306-.323a2.5 2.5 0 0 1-1.762-1.768c-.138-.52-.23-1.228-.293-1.94l-.01-.132-.01-.13A39.114 39.114 0 0 1 0 7.078v-.154A40.68 40.68 0 0 1 .08 4.71l.008-.129.004-.064.01-.13.028-.324.012-.13c.06-.646.148-1.274.274-1.746A2.5 2.5 0 0 1 2.18.417C2.785.255 4.102.156 5.485.093l.211-.008.215-.008.107-.004.213-.008C7.416.027 8.602.005 9.788 0h.24V0ZM7.972 3.999V10l5.178-3L7.972 4Z" fill="#fff"/></svg>