<svg width="64" height="56" fill="none" xmlns="http://www.w3.org/2000/svg"><path d="M.207 52.681c4.143-2.488 7.87-5.945 11.185-10.37 3.452-4.563 5.178-9.126 5.178-13.689 0-1.244-.346-2.212-1.036-2.904-.69-.83-1.726-1.244-3.107-1.244-3.452 0-6.42-1.175-8.906-3.526C1.174 18.46 0 15.486 0 12.03c0-3.457 1.174-6.292 3.521-8.504C6.006 1.176 8.975 0 12.427 0c4.833 0 8.63 1.798 11.392 5.393 2.9 3.456 4.35 8.02 4.35 13.688 0 7.744-2.141 14.796-6.421 21.156C17.605 46.459 11.184 51.714 2.485 56L.207 52.681Zm35.832 0c4.142-2.488 7.87-5.945 11.184-10.37 3.452-4.563 5.178-9.126 5.178-13.689 0-1.244-.345-2.212-1.035-2.904-.69-.83-1.726-1.244-3.107-1.244-3.452 0-6.42-1.175-8.906-3.526-2.348-2.489-3.521-5.462-3.521-8.918 0-3.457 1.173-6.292 3.52-8.504C41.839 1.176 44.808 0 48.26 0c4.833 0 8.63 1.798 11.392 5.393C62.55 8.849 64 13.413 64 19.08c0 7.744-2.14 14.796-6.42 21.156C53.436 46.459 47.015 51.714 38.316 56l-2.278-3.319Z" fill="url(#a)"/><defs><linearGradient id="a" x1="34.744" y1="-4.356" x2="31.992" y2="56" gradientUnits="userSpaceOnUse"><stop stop-color="#ED633E"/><stop offset="1" stop-color="#ED9D12"/></linearGradient></defs></svg>