<svg width="38" height="38" fill="none" xmlns="http://www.w3.org/2000/svg"><circle cx="19" cy="19" r="19" fill="#F07D00"/><path d="M26.95 28c-2.15 0-4.246-.48-6.287-1.438a19.046 19.046 0 0 1-5.425-3.8 19.046 19.046 0 0 1-3.8-5.425C10.479 15.296 10 13.2 10 11.05c0-.3.1-.55.3-.75.2-.2.45-.3.75-.3h4.05a.96.96 0 0 1 .625.225.88.88 0 0 1 .325.575l.65 3.5c.033.233.03.446-.012.637a1.027 1.027 0 0 1-.288.513L14 17.9c.7 1.2 1.575 2.325 2.625 3.375A18.293 18.293 0 0 0 20.1 24l2.35-2.35a1.4 1.4 0 0 1 .588-.338c.241-.075.479-.095.712-.062l3.45.7c.233.05.425.162.575.337.15.175.225.38.225.613v4.05c0 .3-.1.55-.3.75-.2.2-.45.3-.75.3Z" fill="#fff"/></svg>