<svg width="24" height="24" fill="none" xmlns="http://www.w3.org/2000/svg"><path d="M12 6.865a5.135 5.135 0 1 0 0 10.27 5.135 5.135 0 0 0 0-10.27Zm0 8.469a3.334 3.334 0 1 1 0-6.667 3.334 3.334 0 0 1 0 6.667Zm6.539-8.672a1.2 1.2 0 1 1-1.2-1.2 1.2 1.2 0 0 1 1.2 1.2Zm2.937-1.212a4.917 4.917 0 0 0-1.154-1.772 4.894 4.894 0 0 0-1.77-1.153 7.318 7.318 0 0 0-2.428-.464C15.058 2.012 14.717 2 12 2c-2.717 0-3.057.011-4.124.061a7.32 7.32 0 0 0-2.427.464 4.9 4.9 0 0 0-1.77 1.153c-.51.5-.903 1.104-1.154 1.772a7.332 7.332 0 0 0-.464 2.427C2.011 8.943 2 9.284 2 12s.011 3.057.061 4.123c.016.83.173 1.65.464 2.427.25.668.644 1.273 1.154 1.772.5.508 1.104.902 1.771 1.153a7.35 7.35 0 0 0 2.427.464C8.944 21.988 9.285 22 12 22c2.715 0 3.057-.011 4.123-.061a7.335 7.335 0 0 0 2.428-.464 5.113 5.113 0 0 0 2.925-2.925 7.306 7.306 0 0 0 .464-2.427c.049-1.067.06-1.407.06-4.123s-.011-3.057-.06-4.123a7.324 7.324 0 0 0-.464-2.427Zm-1.335 10.591A5.519 5.519 0 0 1 19.8 17.9a3.312 3.312 0 0 1-1.9 1.9 5.547 5.547 0 0 1-1.857.344c-1.054.048-1.371.058-4.042.058s-2.986-.01-4.04-.058A5.547 5.547 0 0 1 6.1 19.8a3.1 3.1 0 0 1-1.15-.748 3.092 3.092 0 0 1-.748-1.15 5.494 5.494 0 0 1-.344-1.857C3.812 14.987 3.8 14.671 3.8 12s.01-2.986.058-4.041A5.552 5.552 0 0 1 4.205 6.1a3.1 3.1 0 0 1 .748-1.15c.321-.333.713-.59 1.147-.75a5.494 5.494 0 0 1 1.86-.34C9.014 3.811 9.331 3.8 12 3.8s2.987.011 4.042.059A5.552 5.552 0 0 1 17.9 4.2a3.31 3.31 0 0 1 1.9 1.9c.221.595.337 1.223.344 1.857.046 1.057.056 1.373.056 4.043s-.01 2.986-.059 4.041Z" fill="#fff"/></svg>