<svg width="35" height="35" fill="none" xmlns="http://www.w3.org/2000/svg"><circle cx="17.5" cy="17.5" r="17.5" fill="#505C84"/><path d="M12.685 25.917H9.061V13.834h3.624v12.083Zm13.292 0h-3.625v-6.455c0-1.682-.6-2.519-1.787-2.519-.941 0-1.538.469-1.838 1.408v7.566h-3.625s.048-10.875 0-12.083h2.861l.222 2.417h.075c.743-1.209 1.93-2.028 3.56-2.028 1.238 0 2.24.344 3.005 1.21.77.866 1.152 2.028 1.152 3.66v6.824ZM10.873 12.625c1.034 0 1.873-.812 1.873-1.813 0-1-.839-1.812-1.873-1.812S9 9.811 9 10.813c0 1 .839 1.812 1.873 1.812Z" fill="#fff"/></svg>