<svg width="16" height="20" fill="none" xmlns="http://www.w3.org/2000/svg"><path d="M8 10c.55 0 1.021-.196 1.413-.588.392-.392.588-.863.587-1.412 0-.55-.196-1.021-.588-1.413A1.922 1.922 0 0 0 8 6c-.55 0-1.021.196-1.413.588A1.922 1.922 0 0 0 6 8c0 .55.196 1.021.588 1.413.392.392.863.588 1.412.587Zm0 9.625c-.133 0-.267-.025-.4-.075a1.2 1.2 0 0 1-.35-.2C4.817 17.2 3 15.204 1.8 13.362.6 11.52 0 9.799 0 8.2c0-2.5.804-4.492 2.413-5.975C4.022.742 5.884 0 8 0c2.117 0 3.98.742 5.588 2.225C15.197 3.708 16.001 5.7 16 8.2c0 1.6-.6 3.321-1.8 5.163-1.2 1.842-3.017 3.838-5.45 5.987a1.2 1.2 0 0 1-.35.2c-.133.05-.267.075-.4.075Z" fill="#E45E13"/></svg>