<svg width="4793" height="793" fill="none" xmlns="http://www.w3.org/2000/svg"><path d="M975 624V481.2h204.4v-119H975v-91.7h220.5v-119h-238c-79.8 0-112 42-112 108.5v364H975Zm293.73-472.5V624h129.5V151.5h-129.5ZM1638.14 624l.7-133h23.8c42 0 60.2 11.9 76.3 44.1l44.1 88.9h140.7l-48.3-99.4c-21-42.7-36.4-70-60.2-85.4 55.3-17.5 90.3-68.6 90.3-130.9 0-104.3-85.4-156.8-197.4-156.8h-198.1V624h128.1Zm71.4-353.5c36.4 0 63 15.4 63 51.1 0 33.6-26.6 54.6-64.4 54.6h-69.3l.7-105.7h70ZM2358.39 624V508.5h-228.2v-63h208.6V330h-208.6v-63h224.7V151.5h-242.2c-79.8 0-112 42-112 108.5v255.5c0 66.5 32.2 108.5 112 108.5h245.7Zm300.91 7.7c78.4 0 147.7-39.2 184.8-103.6l-36.4-21.7c-31.5 51.8-87.5 82.6-149.8 82.6-102.9 0-186.2-87.5-186.2-199.5 0-110.6 84-198.1 186.2-198.1 62.3 0 118.3 31.5 149.8 83.3l36.4-21.7c-37.1-64.4-106.4-104.3-184.8-104.3-128.1 0-233.8 107.1-233.8 240.8 0 135.1 105.7 242.2 233.8 242.2Zm410.08-.7c64.4 0 116.9-35 142.8-86.1V624h41.3V453.2c0-99.4-78.4-176.4-178.5-176.4-101.5 0-177.8 79.8-177.8 176.4 0 98 74.2 177.8 172.2 177.8Zm5.6-41.3c-74.9 0-134.4-61.6-134.4-135.8 0-74.2 59.5-135.8 134.4-135.8 75.6 0 135.1 61.6 135.1 135.8 0 74.2-59.5 135.8-135.1 135.8Zm333.75 190.4V558.2c28.7 44.1 79.1 73.5 136.5 73.5 100.8 0 176.4-78.4 176.4-178.5 0-96.6-76.3-176.4-177.8-176.4-100.1 0-178.5 77-178.5 176.4v326.9h43.4Zm135.1-189.7c-75.6 0-135.1-62.3-135.1-136.5s59.5-135.8 135.1-135.8c74.9 0 134.4 61.6 134.4 135.8 0 74.2-59.5 136.5-134.4 136.5Zm300.85-387.8c17.5 0 30.8-14 30.8-32.2 0-18.2-13.3-32.2-30.8-32.2s-31.5 14-31.5 32.2c0 18.2 14 32.2 31.5 32.2Zm-21.7 81.9V624h43.4V284.5h-43.4Zm306.41 347.2c25.2 0 50.4-8.4 67.9-21.7v-42c-16.8 14-39.9 23.1-64.4 23.1-44.8 0-74.2-29.4-74.2-79.8V323.7h138.6v-39.2h-138.6v-90.3h-43.4v90.3h-72.1v39.2h72.1v189c0 72.1 42 119 114.1 119Zm309.91-.7c64.4 0 116.9-35 142.8-86.1V624h41.3V453.2c0-99.4-78.4-176.4-178.5-176.4-101.5 0-177.8 79.8-177.8 176.4 0 98 74.2 177.8 172.2 177.8Zm5.6-41.3c-74.9 0-134.4-61.6-134.4-135.8 0-74.2 59.5-135.8 134.4-135.8 75.6 0 135.1 61.6 135.1 135.8 0 74.2-59.5 135.8-135.1 135.8Zm304.35-461.3V624h43.4V128.4h-43.4Z" fill="#0E3386"/><path fill-rule="evenodd" clip-rule="evenodd" d="M35.147 310.892c-46.863 46.863-46.863 122.842 0 169.705l48.322 48.322.002-.003 132.051 132.103 98.076-98.077-132.076-132.076L394.36 218.027c46.863-46.863 46.863-122.843 0-169.706L346.039 0 35.147 310.892Z" fill="#E45E13"/><path fill-rule="evenodd" clip-rule="evenodd" d="M165.108 441.792c-46.863 46.863-46.863 122.843 0 169.706l48.321 48.321.003-.003 132.051 132.103 98.076-98.076-132.076-132.077 212.838-212.839c46.863-46.863 46.863-122.842 0-169.705L476 130.9 165.108 441.792Z" fill="#ED9D12"/><path d="M298.282 743.736c-46.862-46.863-46.862-122.843.001-169.706l310.891-310.892 48.322 48.322c46.863 46.863 46.863 122.842 0 169.705L346.604 792.057l-48.322-48.321Z" fill="#F8D119"/></svg>