<svg width="18" height="18" fill="none" xmlns="http://www.w3.org/2000/svg"><path d="M8.25 12.75h1.5v-4.5h-1.5v4.5Zm.75-6c.213 0 .39-.072.535-.216A.723.723 0 0 0 9.75 6a.726.726 0 0 0-.216-.535A.723.723 0 0 0 9 5.25a.726.726 0 0 0-.535.216A.723.723 0 0 0 8.25 6c0 .213.072.39.216.535A.723.723 0 0 0 9 6.75Zm0 9.75a7.3 7.3 0 0 1-2.925-.591 7.585 7.585 0 0 1-2.381-1.603 7.569 7.569 0 0 1-1.603-2.381A7.316 7.316 0 0 1 1.5 9a7.3 7.3 0 0 1 .591-2.925 7.586 7.586 0 0 1 1.603-2.381A7.569 7.569 0 0 1 6.075 2.09 7.316 7.316 0 0 1 9 1.5a7.3 7.3 0 0 1 2.925.591 7.586 7.586 0 0 1 2.381 1.603 7.579 7.579 0 0 1 1.604 2.381A7.29 7.29 0 0 1 16.5 9a7.3 7.3 0 0 1-.591 2.925 7.586 7.586 0 0 1-1.603 2.381 7.58 7.58 0 0 1-2.381 1.604A7.29 7.29 0 0 1 9 16.5Z" fill="#505C84"/></svg>