<svg width="158" height="98" fill="none" xmlns="http://www.w3.org/2000/svg"><path d="M0 33h27.43v65H0V33Z" fill="url(#a)"/><path d="M0 35.5h27.43v-5H0v5Z" fill="#F07D00"/><path d="M42.791 14h27.43v84h-27.43V14Z" fill="url(#b)"/><path d="M42.791 16.5h27.43v-5h-27.43v5Z" fill="#F07D00"/><path d="M87.777 22h27.431v76h-27.43V22Z" fill="url(#c)"/><path d="M87.777 24.5h27.431v-5h-27.43v5Z" fill="#F07D00"/><path d="M130.57 3h27.431v95H130.57V3Z" fill="url(#d)"/><path d="M130.57 5.5h27.431v-5H130.57v5Z" fill="#F07D00"/><defs><linearGradient id="a" x1="12.85" y1="-18.942" x2="69.361" y2="58.636" gradientUnits="userSpaceOnUse"><stop stop-color="#F07D00"/><stop offset="1" stop-color="#F07D00" stop-opacity="0"/></linearGradient><linearGradient id="b" x1="55.641" y1="-53.125" x2="132.227" y2="28.232" gradientUnits="userSpaceOnUse"><stop stop-color="#F07D00"/><stop offset="1" stop-color="#F07D00" stop-opacity="0"/></linearGradient><linearGradient id="c" x1="100.628" y1="-38.732" x2="169.161" y2="41.734" gradientUnits="userSpaceOnUse"><stop stop-color="#F07D00"/><stop offset="1" stop-color="#F07D00" stop-opacity="0"/></linearGradient><linearGradient id="d" x1="143.421" y1="-72.915" x2="230.024" y2="8.43" gradientUnits="userSpaceOnUse"><stop stop-color="#F07D00"/><stop offset="1" stop-color="#F07D00" stop-opacity="0"/></linearGradient></defs></svg>