<svg width="195" height="115" fill="none" xmlns="http://www.w3.org/2000/svg"><path d="M2 98c7.266-.333 22.145-9.5 30.45-17.5 9.57-9.22 20.76-28 36.677-26 10.091 1.268 28.719 6.5 40.83-5 9.612-9.128 23.864-29.206 42.905-22C167.395 33 190.924 16.5 193 2" stroke="#E45E13" stroke-width="3" stroke-linecap="square" stroke-linejoin="round"/><path d="M1 98.5V115h192V3c-5.535 18-22.832 24.167-30.789 25-13.146-1.5-19.027 0-21.795-1.5-2.767-1.5-23.178 11-27.33 19.5-4.151 8.5-10.378 6-17.643 10-7.265 4-22.832-3-32.173-1.5C55.798 55.7 45.166 66 40.784 71c-.807 2.333-4.913 8.7-14.876 15.5C15.945 93.3 5.151 97.333 1 98.5Z" fill="url(#a)"/><defs><linearGradient id="a" x1="90.946" y1="-86.5" x2="126.492" y2="111.728" gradientUnits="userSpaceOnUse"><stop stop-color="#F07D00"/><stop offset="1" stop-color="#F07D00" stop-opacity="0"/></linearGradient></defs></svg>