<svg width="1254" height="1337" fill="none" xmlns="http://www.w3.org/2000/svg"><path fill-rule="evenodd" clip-rule="evenodd" d="M59.328 524.879c-79.104 79.119-79.104 207.396 0 286.515l81.565 81.581.005-.005L363.797 1116l165.551-165.583-222.943-222.985 359.267-359.336c79.104-79.119 79.104-207.396 0-286.515L584.107 0 59.327 524.879Z" fill="#E45E13"/><path fill-rule="evenodd" clip-rule="evenodd" d="M278.328 745.879c-79.104 79.119-79.104 207.396 0 286.511l81.565 81.58h.005L582.797 1337l165.551-165.58-222.943-222.988 359.267-359.336c79.104-79.119 79.104-207.396 0-286.515L803.107 221 278.328 745.879Z" fill="#ED9D12"/><path d="M503.505 1255.43c-79.104-79.1-79.104-207.36.001-286.463L1028.29 444.18l81.57 81.567c79.1 79.105 79.1 207.359 0 286.464L585.072 1337l-81.567-81.57Z" fill="#F8D119"/></svg>